<?xml version="1.0" encoding="UTF-8" standalone="no"?>
<svg
   id="visual"
   viewBox="0 0 960 540"
   width="960"
   height="540"
   version="1.1"
   sodipodi:docname="layered-waves-haikei (1).svg"
   inkscape:version="1.3.1 (91b66b0783, 2023-11-16)"
   xmlns:inkscape="http://www.inkscape.org/namespaces/inkscape"
   xmlns:sodipodi="http://sodipodi.sourceforge.net/DTD/sodipodi-0.dtd"
   xmlns="http://www.w3.org/2000/svg"
   xmlns:svg="http://www.w3.org/2000/svg">
  <defs
     id="defs5" />
  <sodipodi:namedview
     id="namedview5"
     pagecolor="#ffffff"
     bordercolor="#000000"
     borderopacity="0.25"
     inkscape:showpageshadow="2"
     inkscape:pageopacity="0.0"
     inkscape:pagecheckerboard="0"
     inkscape:deskcolor="#d1d1d1"
     inkscape:zoom="0.76971519"
     inkscape:cx="387.80578"
     inkscape:cy="137.06368"
     inkscape:window-width="1920"
     inkscape:window-height="1094"
     inkscape:window-x="466"
     inkscape:window-y="2149"
     inkscape:window-maximized="1"
     inkscape:current-layer="visual" />
  <path
     d="m 960,455 -16,-0.3 c -16,-0.4 -48,-1 -80,-4.5 -32,-3.5 -64,-9.9 -96,-16.7 -32,-6.8 -64,-14.2 -96,-13.5 -32,0.7 -64,9.3 -96,14.7 -32,5.3 -64,7.3 -96,9 -32,1.6 -64,3 -96,0 -32,-3 -64,-10.4 -96,-10.4 -32,0 -64,7.4 -96,7.5 -32,0.2 -64,-6.8 -96,-7.6 -32,-0.9 -64,4.5 -80,7.1 L 0,443 v 98 h 16 c 16,0 48,0 80,0 32,0 64,0 96,0 32,0 64,0 96,0 32,0 64,0 96,0 32,0 64,0 96,0 32,0 64,0 96,0 32,0 64,0 96,0 32,0 64,0 96,0 32,0 64,0 96,0 32,0 64,0 80,0 h 16 z"
     fill="#1d2951"
     id="path1" />
  <path
     d="m 960,443 -16,-1.5 C 928,440 896,437 864,439 c -32,2 -64,9 -96,12.3 -32,3.4 -64,3 -96,1.5 -32,-1.5 -64,-4.1 -96,-0.8 -32,3.3 -64,12.7 -96,10.2 -32,-2.5 -64,-16.9 -96,-22.4 -32,-5.5 -64,-2.1 -96,1.2 -32,3.3 -64,6.7 -96,10.7 -32,4 -64,8.6 -96,9.8 -32,1.2 -64,-1.2 -80,-2.3 L 0,458 v 83 h 16 c 16,0 48,0 80,0 32,0 64,0 96,0 32,0 64,0 96,0 32,0 64,0 96,0 32,0 64,0 96,0 32,0 64,0 96,0 32,0 64,0 96,0 32,0 64,0 96,0 32,0 64,0 96,0 32,0 64,0 80,0 h 16 z"
     fill="#2f3063"
     id="path2" />
  <path
     d="m 960,474 -16,2.2 c -16,2.1 -48,6.5 -80,5.8 -32,-0.7 -64,-6.3 -96,-11.8 -32,-5.5 -64,-10.9 -96,-9.4 -32,1.5 -64,9.9 -96,11.4 -32,1.5 -64,-3.9 -96,-2.7 -32,1.2 -64,8.8 -96,10.7 -32,1.8 -64,-2.2 -96,-6.4 -32,-4.1 -64,-8.5 -96,-7 -32,1.5 -64,8.9 -96,8.2 -32,-0.7 -64,-9.3 -80,-13.7 L 0,457 v 84 h 16 c 16,0 48,0 80,0 32,0 64,0 96,0 32,0 64,0 96,0 32,0 64,0 96,0 32,0 64,0 96,0 32,0 64,0 96,0 32,0 64,0 96,0 32,0 64,0 96,0 32,0 64,0 96,0 32,0 64,0 80,0 h 16 z"
     fill="#453773"
     id="path3" />
  <path
     d="m 960,507 -16,-3.5 C 928,500 896,493 864,492.2 c -32,-0.9 -64,4.5 -96,7.5 -32,3 -64,3.6 -96,4.3 -32,0.7 -64,1.3 -96,-3.2 -32,-4.5 -64,-14.1 -96,-14.8 -32,-0.7 -64,7.7 -96,12.3 -32,4.7 -64,5.7 -96,6.5 -32,0.9 -64,1.5 -96,0.9 C 160,505 128,503 96,498.5 64,494 32,487 16,483.5 L 0,480 v 61 h 16 c 16,0 48,0 80,0 32,0 64,0 96,0 32,0 64,0 96,0 32,0 64,0 96,0 32,0 64,0 96,0 32,0 64,0 96,0 32,0 64,0 96,0 32,0 64,0 96,0 32,0 64,0 96,0 32,0 64,0 80,0 h 16 z"
     fill="#5d3c82"
     id="path4" />
  <path
     d="m 960,503 h -16 c -16,0 -48,0 -80,2.2 -32,2.1 -64,6.5 -96,7.1 -32,0.7 -64,-2.3 -96,-1.3 -32,1 -64,6 -96,8.8 -32,2.9 -64,3.5 -96,0.7 -32,-2.8 -64,-9.2 -96,-9.7 -32,-0.5 -64,4.9 -96,4 -32,-0.8 -64,-7.8 -96,-8.5 -32,-0.6 -64,5 -96,7.7 -32,2.7 -64,2.3 -80,2.2 L 0,516 v 25 h 16 c 16,0 48,0 80,0 32,0 64,0 96,0 32,0 64,0 96,0 32,0 64,0 96,0 32,0 64,0 96,0 32,0 64,0 96,0 32,0 64,0 96,0 32,0 64,0 96,0 32,0 64,0 96,0 32,0 64,0 80,0 h 16 z"
     fill="#783f8e"
     id="path5" />
  <path
     d="m 0.0202699,84.679811 16.0000001,0.3 c 16,0.4 48,1 80,4.5 32,3.5 64,9.899999 96,16.699999 32,6.8 64,14.2 96,13.5 32,-0.7 64,-9.3 96,-14.7 32,-5.3 64,-7.3 96,-8.999999 32,-1.6 64,-3 96,0 32,2.999999 64,10.399999 96,10.399999 32,0 64,-7.4 96,-7.5 32,-0.2 64,6.8 96,7.6 32,0.9 64,-4.5 80,-7.1 l 16,-2.7 V -1.3201862 h -16 c -16,0 -48,0 -80,0 -32,0 -64,0 -96,0 -32,0 -64,0 -96,0 -32,0 -64,0 -96,0 -32,0 -64,0 -96,0 -32,0 -64,0 -96,0 -32,0 -64,0 -96,0 -32,0 -64,0 -96,0 -32,0 -64,0 -96,0 -32,0 -64,0 -80,0 H 0.0202699 Z"
     fill="#1d2951"
     id="path1-5" />
  <path
     d="m 0.0202699,96.67981 16.0000001,1.5 c 16,1.5 48,4.5 80,2.5 32,-2 64,-8.999999 96,-12.299999 32,-3.4 64,-3 96,-1.5 32,1.5 64,4.1 96,0.8 32,-3.3 64,-12.7 96,-10.2 32,2.5 64,16.9 96,22.399999 32,5.5 64,2.1 96,-1.2 32,-3.299999 64,-6.699999 96,-10.699999 32,-4 64,-8.6 96,-9.8 32,-1.2 64,1.2 80,2.3 l 16,1.2 V -1.3201862 h -16 c -16,0 -48,0 -80,0 -32,0 -64,0 -96,0 -32,0 -64,0 -96,0 -32,0 -64,0 -96,0 -32,0 -64,0 -96,0 -32,0 -64,0 -96,0 -32,0 -64,0 -96,0 -32,0 -64,0 -96,0 -32,0 -64,0 -96,0 -32,0 -64,0 -80,0 H 0.0202699 Z"
     fill="#2f3063"
     id="path2-2" />
  <path
     d="m 0.0202699,65.679811 16.0000001,-2.2 c 16,-2.1 48,-6.5 80,-5.8 32,0.7 64,6.3 96,11.8 32,5.5 64,10.9 96,9.4 32,-1.5 64,-9.9 96,-11.4 32,-1.5 64,3.9 96,2.7 32,-1.2 64,-8.8 96,-10.7 32,-1.8 64,2.2 96,6.4 32,4.1 64,8.5 96,7 32,-1.5 64,-8.9 96,-8.2 32,0.7 64,9.3 80,13.7 l 16,4.3 V -1.3201862 h -16 c -16,0 -48,0 -80,0 -32,0 -64,0 -96,0 -32,0 -64,0 -96,0 -32,0 -64,0 -96,0 -32,0 -64,0 -96,0 -32,0 -64,0 -96,0 -32,0 -64,0 -96,0 -32,0 -64,0 -96,0 -32,0 -64,0 -96,0 -32,0 -64,0 -80,0 H 0.0202699 Z"
     fill="#453773"
     id="path3-8" />
  <path
     d="m 0.0202699,32.679811 16.0000001,3.5 c 16,3.5 48,10.5 80,11.3 32,0.9 64,-4.5 96,-7.5 32,-3 64,-3.6 96,-4.3 32,-0.7 64,-1.3 96,3.2 32,4.5 64,14.1 96,14.8 32,0.7 64,-7.7 96,-12.3 32,-4.7 64,-5.7 96,-6.5 32,-0.9 64,-1.5 96,-0.9 32,0.7 64,2.7 96,7.2 32,4.5 64,11.5 80,15 l 16,3.5 V -1.3201862 h -16 c -16,0 -48,0 -80,0 -32,0 -64,0 -96,0 -32,0 -64,0 -96,0 -32,0 -64,0 -96,0 -32,0 -64,0 -96,0 -32,0 -64,0 -96,0 -32,0 -64,0 -96,0 -32,0 -64,0 -96,0 -32,0 -64,0 -96,0 -32,0 -64,0 -80,0 H 0.0202699 Z"
     fill="#5d3c82"
     id="path4-7" />
  <path
     d="M 0.0202699,36.679811 H 16.02027 c 16,0 48,0 80,-2.2 32,-2.1 64,-6.5 96,-7.099997 32,-0.7 64,2.299997 96,1.299997 32,-0.999997 64,-5.999997 96,-8.799997 32,-2.9 64,-3.5 96,-0.7 32,2.8 64,9.199997 96,9.699997 32,0.5 64,-4.899997 96,-3.999997 32,0.8 64,7.799997 96,8.499997 32,0.6 64,-5 96,-7.699997 32,-2.7 64,-2.3 80,-2.2 l 16,0.2 V -1.3201862 h -16 c -16,0 -48,0 -80,0 -32,0 -64,0 -96,0 -32,0 -64,0 -96,0 -32,0 -64,0 -96,0 -32,0 -64,0 -96,0 -32,0 -64,0 -96,0 -32,0 -64,0 -96,0 -32,0 -64,0 -96,0 -32,0 -64,0 -96,0 -32,0 -64,0 -80,0 H 0.0202699 Z"
     fill="#783f8e"
     id="path5-4" />
</svg>
